<svg width="16" height="16" viewBox="0 0 16 16" fill="none" xmlns="http://www.w3.org/2000/svg">
<path d="M6 1C5.37935 0.999675 4.77387 1.19186 4.26702 1.55006C3.91506 1.79879 3.62268 2.11908 3.40758 2.48754C3.23666 2.78032 2.94334 3 2.60431 3H0.8C0.358173 3 0 3.35817 0 3.8L0 4.2C0 4.64183 0.358172 5 0.8 5H2.60394C2.94315 5 3.23659 5.21991 3.40744 5.51295C3.62239 5.88164 3.91467 6.2022 4.2666 6.45121C4.77346 6.80986 5.37909 7.00245 6 7.00245C6.62091 7.00245 7.22654 6.80986 7.7334 6.45121C8.08533 6.2022 8.37761 5.88164 8.59256 5.51295C8.76342 5.21991 9.05685 5 9.39606 5H15.2C15.6418 5 16 4.64183 16 4.2V3.8C16 3.35817 15.6418 3 15.2 3H9.39569C9.05666 3 8.76334 2.78032 8.59242 2.48754C8.37732 2.11908 8.08494 1.79879 7.73298 1.55006C7.22613 1.19186 6.62065 0.999675 6 1ZM5 4C5 3.73478 5.10536 3.48043 5.29289 3.29289C5.48043 3.10536 5.73478 3 6 3C6.26522 3 6.51957 3.10536 6.70711 3.29289C6.89464 3.48043 7 3.73478 7 4C7 4.26522 6.89464 4.51957 6.70711 4.70711C6.51957 4.89464 6.26522 5 6 5C5.73478 5 5.48043 4.89464 5.29289 4.70711C5.10536 4.51957 5 4.26522 5 4ZM10 9C9.37935 8.99968 8.77387 9.19186 8.26702 9.55006C7.91506 9.79879 7.62269 10.1191 7.40758 10.4875C7.23666 10.7803 6.94334 11 6.60431 11H0.800001C0.358173 11 0 11.3582 0 11.8L0 12.2C0 12.6418 0.358172 13 0.8 13H6.60394C6.94315 13 7.23659 13.2199 7.40744 13.5129C7.62239 13.8816 7.91467 14.2022 8.2666 14.4512C8.77346 14.8099 9.37909 15.0025 10 15.0025C10.6209 15.0025 11.2265 14.8099 11.7334 14.4512C12.0853 14.2022 12.3776 13.8816 12.5926 13.513C12.7634 13.2199 13.0569 13 13.3961 13H15.2C15.6418 13 16 12.6418 16 12.2V11.8C16 11.3582 15.6418 11 15.2 11H13.3957C13.0567 11 12.7633 10.7803 12.5924 10.4875C12.3773 10.1191 12.0849 9.79879 11.733 9.55006C11.2261 9.19186 10.6207 8.99968 10 9ZM9 12C9 11.7348 9.10536 11.4804 9.29289 11.2929C9.48043 11.1054 9.73478 11 10 11C10.2652 11 10.5196 11.1054 10.7071 11.2929C10.8946 11.4804 11 11.7348 11 12C11 12.2652 10.8946 12.5196 10.7071 12.7071C10.5196 12.8946 10.2652 13 10 13C9.73478 13 9.48043 12.8946 9.29289 12.7071C9.10536 12.5196 9 12.2652 9 12Z" fill="black"/>
</svg>
