<svg width="20" height="20" viewBox="0 0 20 20" fill="none" xmlns="http://www.w3.org/2000/svg">
<g clip-path="url(#clip0_840_4799)">
<path d="M2.91666 9.89167C3.53333 10.5 3.69166 11.375 3.39999 12.125L5.83333 14.5583V12.8333C5.83333 12.375 6.20833 12 6.66666 12H7.52499C7.49999 11.8583 7.49999 11.725 7.49999 11.5833C7.49999 9.05 9.54999 7 12.0833 7C13.0273 6.99912 13.9486 7.2899 14.721 7.83258C15.4934 8.37526 16.0793 9.14333 16.3986 10.0317C16.7178 10.9201 16.7548 11.8854 16.5044 12.7956C16.2541 13.7059 15.7287 14.5165 15 15.1167L15 20.3333C15 20.7917 14.625 21.1667 14.1667 21.1667H6.66666C6.20833 21.1667 5.83333 20.7917 5.83333 20.3333L5.83333 16.9083L2.22499 13.3C1.47499 13.5917 0.599996 13.4417 -4.72853e-06 12.8333L2.91666 9.89167ZM14.9583 12C14.975 11.8583 15 11.725 15 11.5833C15 9.975 13.6917 8.66667 12.0833 8.66667C10.475 8.66667 9.16666 9.975 9.16666 11.5833C9.16666 11.725 9.19166 11.8583 9.20833 12L14.9583 12Z" fill="white"/>
<ellipse cx="4.5" cy="5.5" rx="0.5" ry="0.5" fill="white"/>
<ellipse cx="2.5" cy="5.5" rx="0.5" ry="0.5" fill="white"/>
<ellipse cx="0.5" cy="4.5" rx="0.5" ry="0.5" fill="white"/>
<ellipse cx="2.5" cy="3.5" rx="0.5" ry="0.5" fill="white"/>
<ellipse cx="2.5" cy="7.5" rx="0.5" ry="0.5" fill="white"/>
<ellipse cx="0.5" cy="6.5" rx="0.5" ry="0.5" fill="white"/>
<ellipse cx="0.5" cy="8.5" rx="0.5" ry="0.5" fill="white"/>
</g>
<defs>
<clipPath id="clip0_840_4799">
<rect width="20" height="20" fill="white" transform="matrix(-1 0 0 1 20 0)"/>
</clipPath>
</defs>
</svg>
