<svg width="18" height="18" viewBox="0 0 18 18" fill="none" xmlns="http://www.w3.org/2000/svg">
<path d="M14.6354 3.36533C13.1483 1.87822 10.7419 1.87822 9.25654 3.36533L7.55322 5.06865L8.44971 5.96514L10.153 4.26182C11.0987 3.31611 12.6948 3.21592 13.739 4.26182C14.7849 5.30772 14.6847 6.90205 13.739 7.84775L12.0356 9.55108L12.9339 10.4493L14.6372 8.746C16.1208 7.25889 16.1208 4.85244 14.6354 3.36533ZM7.84854 13.7399C6.90283 14.6856 5.30674 14.7858 4.2626 13.7399C3.2167 12.694 3.31689 11.0997 4.2626 10.154L5.96592 8.45068L5.06768 7.55244L3.36436 9.25576C1.87725 10.7429 1.87725 13.1493 3.36436 14.6347C4.85146 16.12 7.25791 16.1218 8.74326 14.6347L10.4466 12.9313L9.5501 12.0349L7.84854 13.7399ZM4.57549 3.68174C4.54906 3.65557 4.51337 3.64089 4.47617 3.64089C4.43898 3.64089 4.40329 3.65557 4.37686 3.68174L3.68076 4.37783C3.65459 4.40426 3.63991 4.43995 3.63991 4.47715C3.63991 4.51434 3.65459 4.55003 3.68076 4.57646L13.4261 14.3218C13.4806 14.3763 13.5702 14.3763 13.6247 14.3218L14.3208 13.6257C14.3753 13.5712 14.3753 13.4815 14.3208 13.4271L4.57549 3.68174Z" fill="white"/>
</svg>
