<svg width="28" height="28" viewBox="0 0 28 28" fill="none" xmlns="http://www.w3.org/2000/svg">
<path d="M21.3503 6.66168C21.2423 6.55353 21.1141 6.46772 20.973 6.40918C20.8319 6.35063 20.6806 6.3205 20.5278 6.3205C20.375 6.3205 20.2237 6.35063 20.0825 6.40918C19.9414 6.46772 19.8132 6.55353 19.7053 6.66168L14.0003 12.355L8.29526 6.65002C8.18725 6.542 8.05902 6.45632 7.91789 6.39787C7.77677 6.33941 7.62551 6.30933 7.47276 6.30933C7.32001 6.30933 7.16875 6.33941 7.02763 6.39787C6.8865 6.45632 6.75827 6.542 6.65026 6.65002C6.54225 6.75803 6.45657 6.88626 6.39811 7.02738C6.33966 7.16851 6.30957 7.31976 6.30957 7.47252C6.30957 7.62527 6.33966 7.77653 6.39811 7.91765C6.45657 8.05878 6.54225 8.187 6.65026 8.29502L12.3553 14L6.65026 19.705C6.54225 19.813 6.45657 19.9413 6.39811 20.0824C6.33966 20.2235 6.30957 20.3748 6.30957 20.5275C6.30957 20.6803 6.33966 20.8315 6.39811 20.9726C6.45657 21.1138 6.54225 21.242 6.65026 21.35C6.75827 21.458 6.8865 21.5437 7.02763 21.6022C7.16875 21.6606 7.32001 21.6907 7.47276 21.6907C7.62551 21.6907 7.77677 21.6606 7.91789 21.6022C8.05902 21.5437 8.18725 21.458 8.29526 21.35L14.0003 15.645L19.7053 21.35C19.8133 21.458 19.9415 21.5437 20.0826 21.6022C20.2238 21.6606 20.375 21.6907 20.5278 21.6907C20.6805 21.6907 20.8318 21.6606 20.9729 21.6022C21.114 21.5437 21.2422 21.458 21.3503 21.35C21.4583 21.242 21.544 21.1138 21.6024 20.9726C21.6609 20.8315 21.6909 20.6803 21.6909 20.5275C21.6909 20.3748 21.6609 20.2235 21.6024 20.0824C21.544 19.9413 21.4583 19.813 21.3503 19.705L15.6453 14L21.3503 8.29502C21.7936 7.85168 21.7936 7.10502 21.3503 6.66168Z" fill="black"/>
</svg>
