<svg width="14" height="16" viewBox="0 0 14 16" fill="none" xmlns="http://www.w3.org/2000/svg">
<path d="M6.66667 15.1667C4.81944 15.1667 3.24639 14.5278 1.9475 13.25C0.648611 11.9722 -0.000555199 10.4167 3.56278e-07 8.58333C3.56278e-07 7.70833 0.170278 6.87167 0.510834 6.07333C0.851389 5.275 1.33389 4.57 1.95833 3.95833L5.5 0.479167C5.66667 0.326389 5.85083 0.208333 6.0525 0.125C6.25417 0.0416667 6.45889 0 6.66667 0C6.87444 0 7.07944 0.0416667 7.28167 0.125C7.48389 0.208333 7.66778 0.326389 7.83333 0.479167L11.375 3.95833C12 4.56944 12.4828 5.27444 12.8233 6.07333C13.1639 6.87222 13.3339 7.70889 13.3333 8.58333C13.3333 10.4167 12.6842 11.9722 11.3858 13.25C10.0875 14.5278 8.51445 15.1667 6.66667 15.1667Z" fill="white"/>
</svg>
