<svg width="22" height="22" viewBox="0 0 22 22" fill="none" xmlns="http://www.w3.org/2000/svg">
<path d="M11 0.75C8.97275 0.75 6.99101 1.35115 5.30541 2.47744C3.61981 3.60372 2.30604 5.20455 1.53024 7.07749C0.754441 8.95044 0.551457 11.0114 0.946956 12.9997C1.34245 14.988 2.31867 16.8144 3.75216 18.2478C5.18565 19.6813 7.01202 20.6576 9.00033 21.053C10.9886 21.4485 13.0496 21.2456 14.9225 20.4698C16.7955 19.694 18.3963 18.3802 19.5226 16.6946C20.6489 15.009 21.25 13.0273 21.25 11C21.2474 8.28234 20.1666 5.67675 18.2449 3.75508C16.3233 1.83341 13.7177 0.752647 11 0.75ZM11 5.44C11.2639 5.44396 11.5155 5.55208 11.7 5.74078C11.8845 5.92949 11.987 6.18348 11.985 6.44739C11.983 6.7113 11.8768 6.96372 11.6895 7.14964C11.5021 7.33556 11.2489 7.43989 10.985 7.43989C10.7211 7.43989 10.4679 7.33556 10.2806 7.14964C10.0932 6.96372 9.98701 6.7113 9.98503 6.44739C9.98305 6.18348 10.0855 5.92949 10.27 5.74078C10.4545 5.55208 10.7061 5.44396 10.97 5.44H11ZM12 16.27C12 16.5352 11.8946 16.7896 11.7071 16.9771C11.5196 17.1646 11.2652 17.27 11 17.27C10.7348 17.27 10.4804 17.1646 10.2929 16.9771C10.1054 16.7896 10 16.5352 10 16.27V9.94C10 9.67478 10.1054 9.42043 10.2929 9.23289C10.4804 9.04536 10.7348 8.94 11 8.94C11.2652 8.94 11.5196 9.04536 11.7071 9.23289C11.8946 9.42043 12 9.67478 12 9.94V16.27Z" fill="#757575"/>
</svg>
