<svg width="111" height="26" viewBox="0 0 111 26" fill="none" xmlns="http://www.w3.org/2000/svg">
<path d="M31.7693 16.4825C31.7693 18.899 24.6574 25.3202 15.8844 25.3202C7.11148 25.3202 0.108398 18.899 0.108398 16.4825C0.108398 14.066 7.11148 14.0093 15.8844 14.0093C24.6574 14.0093 31.7693 14.066 31.7693 16.4825Z" fill="#C7C7CC"/>
<ellipse cx="15.8848" cy="16.4585" rx="15.8848" ry="4.35201" fill="#ADADB4"/>
<ellipse cx="15.8848" cy="5.35201" rx="15.8848" ry="4.35201" fill="#C7C7CC"/>
<path d="M45.592 8.84C46.072 8.104 46.672 7.528 47.392 7.112C48.112 6.68 48.912 6.464 49.792 6.464V10.808H48.664C47.64 10.808 46.872 11.032 46.36 11.48C45.848 11.912 45.592 12.68 45.592 13.784V20H41.488V6.608H45.592V8.84ZM57.1296 20.192C55.8176 20.192 54.6336 19.912 53.5776 19.352C52.5376 18.792 51.7136 17.992 51.1056 16.952C50.5136 15.912 50.2176 14.696 50.2176 13.304C50.2176 11.928 50.5216 10.72 51.1296 9.68C51.7376 8.624 52.5696 7.816 53.6256 7.256C54.6816 6.696 55.8656 6.416 57.1776 6.416C58.4896 6.416 59.6736 6.696 60.7296 7.256C61.7856 7.816 62.6176 8.624 63.2256 9.68C63.8336 10.72 64.1376 11.928 64.1376 13.304C64.1376 14.68 63.8256 15.896 63.2016 16.952C62.5936 17.992 61.7536 18.792 60.6816 19.352C59.6256 19.912 58.4416 20.192 57.1296 20.192ZM57.1296 16.64C57.9136 16.64 58.5776 16.352 59.1216 15.776C59.6816 15.2 59.9616 14.376 59.9616 13.304C59.9616 12.232 59.6896 11.408 59.1456 10.832C58.6176 10.256 57.9616 9.968 57.1776 9.968C56.3776 9.968 55.7136 10.256 55.1856 10.832C54.6576 11.392 54.3936 12.216 54.3936 13.304C54.3936 14.376 54.6496 15.2 55.1616 15.776C55.6896 16.352 56.3456 16.64 57.1296 16.64ZM71.6909 20.192C70.3789 20.192 69.1949 19.912 68.1389 19.352C67.0989 18.792 66.2749 17.992 65.6669 16.952C65.0749 15.912 64.7789 14.696 64.7789 13.304C64.7789 11.928 65.0829 10.72 65.6909 9.68C66.2989 8.624 67.1309 7.816 68.1869 7.256C69.2429 6.696 70.4269 6.416 71.7389 6.416C73.0509 6.416 74.2349 6.696 75.2909 7.256C76.3469 7.816 77.1789 8.624 77.7869 9.68C78.3949 10.72 78.6989 11.928 78.6989 13.304C78.6989 14.68 78.3869 15.896 77.7629 16.952C77.1549 17.992 76.3149 18.792 75.2429 19.352C74.1869 19.912 73.0029 20.192 71.6909 20.192ZM71.6909 16.64C72.4749 16.64 73.1389 16.352 73.6829 15.776C74.2429 15.2 74.5229 14.376 74.5229 13.304C74.5229 12.232 74.2509 11.408 73.7069 10.832C73.1789 10.256 72.5229 9.968 71.7389 9.968C70.9389 9.968 70.2749 10.256 69.7469 10.832C69.2189 11.392 68.9549 12.216 68.9549 13.304C68.9549 14.376 69.2109 15.2 69.7229 15.776C70.2509 16.352 70.9069 16.64 71.6909 16.64ZM87.6201 16.52V20H85.5321C84.0441 20 82.8841 19.64 82.0521 18.92C81.2201 18.184 80.8041 16.992 80.8041 15.344V10.016H79.1721V6.608H80.8041V3.344H84.9081V6.608H87.5961V10.016H84.9081V15.392C84.9081 15.792 85.0041 16.08 85.1961 16.256C85.3881 16.432 85.7081 16.52 86.1561 16.52H87.6201ZM91.2501 5.216C90.5301 5.216 89.9381 5.008 89.4741 4.592C89.0261 4.16 88.8021 3.632 88.8021 3.008C88.8021 2.368 89.0261 1.84 89.4741 1.424C89.9381 0.991999 90.5301 0.775999 91.2501 0.775999C91.9541 0.775999 92.5301 0.991999 92.9781 1.424C93.4421 1.84 93.6741 2.368 93.6741 3.008C93.6741 3.632 93.4421 4.16 92.9781 4.592C92.5301 5.008 91.9541 5.216 91.2501 5.216ZM93.2901 6.608V20H89.1861V6.608H93.2901ZM103.704 6.464C105.272 6.464 106.52 6.976 107.448 8C108.392 9.008 108.864 10.4 108.864 12.176V20H104.784V12.728C104.784 11.832 104.552 11.136 104.088 10.64C103.624 10.144 103 9.896 102.216 9.896C101.432 9.896 100.808 10.144 100.344 10.64C99.8803 11.136 99.6483 11.832 99.6483 12.728V20H95.5443V6.608H99.6483V8.384C100.064 7.792 100.624 7.328 101.328 6.992C102.032 6.64 102.824 6.464 103.704 6.464Z" fill="#8E8E8E"/>
</svg>
