<svg width="24" height="24" viewBox="0 0 24 24" fill="none" xmlns="http://www.w3.org/2000/svg">
<path d="M13.8499 3.40418L13.8503 3.40446L19.6101 7.43436C20.039 7.73455 20.4592 8.2387 20.7729 8.83953C21.0865 9.44035 21.2602 10.0738 21.2602 10.5999V17.3799C21.2602 19.5157 19.526 21.2499 17.3902 21.2499H6.61023C4.47656 21.2499 2.74023 19.5078 2.74023 17.3699V10.4699C2.74023 9.98328 2.89706 9.38217 3.1831 8.80123C3.46893 8.22071 3.85184 7.72526 4.24151 7.42131L4.24167 7.42119L9.2496 3.5128C9.24994 3.51254 9.25027 3.51228 9.25061 3.51202C10.5009 2.54409 12.5495 2.49306 13.8499 3.40418Z" stroke="#8B8B8B" stroke-width="1.5"/>
<mask id="path-2-inside-1_16_2297" fill="white">
<path d="M12 18.75C11.59 18.75 11.25 18.41 11.25 18V15C11.25 14.59 11.59 14.25 12 14.25C12.41 14.25 12.75 14.59 12.75 15V18C12.75 18.41 12.41 18.75 12 18.75Z"/>
</mask>
<path d="M12 18.75C11.59 18.75 11.25 18.41 11.25 18V15C11.25 14.59 11.59 14.25 12 14.25C12.41 14.25 12.75 14.59 12.75 15V18C12.75 18.41 12.41 18.75 12 18.75Z" fill="#04ABB0"/>
<path d="M12 17.25C12.4184 17.25 12.75 17.5816 12.75 18H9.75C9.75 19.2384 10.7616 20.25 12 20.25V17.25ZM12.75 18V15H9.75V18H12.75ZM12.75 15C12.75 15.4184 12.4184 15.75 12 15.75V12.75C10.7616 12.75 9.75 13.7616 9.75 15H12.75ZM12 15.75C11.5816 15.75 11.25 15.4184 11.25 15H14.25C14.25 13.7616 13.2384 12.75 12 12.75V15.75ZM11.25 15V18H14.25V15H11.25ZM11.25 18C11.25 17.5816 11.5816 17.25 12 17.25V20.25C13.2384 20.25 14.25 19.2384 14.25 18H11.25Z" fill="#8B8B8B" mask="url(#path-2-inside-1_16_2297)"/>
</svg>
