<svg width="42" height="42" viewBox="0 0 42 42" fill="none" xmlns="http://www.w3.org/2000/svg">
<path d="M36.75 33.25V8.75C36.75 6.825 35.175 5.25 33.25 5.25H8.75C6.825 5.25 5.25 6.825 5.25 8.75V33.25C5.25 35.175 6.825 36.75 8.75 36.75H33.25C35.175 36.75 36.75 35.175 36.75 33.25ZM15.575 24.465L19.25 28.8925L24.675 21.91C25.025 21.455 25.725 21.455 26.075 21.9275L32.2175 30.1175C32.315 30.2475 32.3744 30.4021 32.389 30.5639C32.4036 30.7258 32.3728 30.8885 32.3001 31.0338C32.2275 31.1792 32.1157 31.3014 31.9775 31.3868C31.8393 31.4722 31.68 31.5175 31.5175 31.5175H10.535C9.8 31.5175 9.3975 30.6775 9.8525 30.1L14.21 24.5C14.5425 24.045 15.2075 24.0275 15.575 24.465Z" fill="white"/>
</svg>
