<svg width="24" height="24" viewBox="0 0 24 24" fill="none" xmlns="http://www.w3.org/2000/svg">
<path d="M19.0001 2.8H18.9996C18.9579 2.79997 18.9172 2.81302 18.8832 2.8373C18.8493 2.86151 18.8239 2.89569 18.8103 2.93506L19.0001 2.8ZM19.0001 2.8C19.0375 2.8 19.0742 2.8105 19.1059 2.83029C19.133 2.84719 19.1556 2.87028 19.1719 2.89757L19.1968 2.95824L19.5389 3.96129L19.6659 4.33341L20.038 4.46023L21.065 4.81023L21.0658 4.81048C21.1033 4.82322 21.1361 4.8468 21.1602 4.87824C21.1843 4.90968 21.1985 4.94756 21.201 4.98708C21.2035 5.0266 21.1943 5.06598 21.1744 5.10023C21.1574 5.12955 21.1332 5.15398 21.1043 5.17133L21.043 5.19629L20.0388 5.53884L19.6667 5.66578L19.5399 6.03794L19.1899 7.06494L19.1898 7.06518C19.177 7.10267 19.1534 7.13552 19.122 7.15958C19.0905 7.18364 19.0526 7.19782 19.0131 7.20033C18.9736 7.20283 18.9342 7.19355 18.9 7.17366C18.8704 7.15649 18.8459 7.13208 18.8285 7.10284L18.8034 7.04176L18.4613 6.03871L18.3343 5.66659L17.9622 5.53977L16.9352 5.18977L16.9345 5.18952C16.897 5.17678 16.8641 5.1532 16.84 5.12176C16.8159 5.09032 16.8017 5.05244 16.7992 5.01292C16.7967 4.9734 16.8059 4.93402 16.8258 4.89976C16.8428 4.87045 16.867 4.84602 16.8959 4.82867L16.9572 4.80372L17.9614 4.46116L18.3335 4.33422L18.4603 3.96206L18.8102 2.9354L19.0001 2.8ZM9.05017 8.0899L9.05435 8.07874L9.0582 8.06746L9.86413 5.70669C9.86415 5.70661 9.86418 5.70653 9.8642 5.70646C10.2196 4.66714 11.6577 4.62216 12.0907 5.59024L12.1389 5.71892L12.9421 8.06768C12.9421 8.06773 12.9421 8.06779 12.9421 8.06784C13.1641 8.71726 13.5227 9.31153 13.9938 9.81059C14.4649 10.3097 15.0377 10.7019 15.6733 10.9609L15.6842 10.9653L15.6953 10.9695L15.9123 11.0505L15.9229 11.0544L15.9335 11.0581L18.2934 11.864C18.2935 11.864 18.2935 11.8641 18.2935 11.8641C19.3332 12.2194 19.3778 13.6578 18.4108 14.0906L18.2822 14.1388L15.9337 14.9419C15.9335 14.9419 15.9334 14.942 15.9333 14.942C15.2837 15.1638 14.6893 15.5223 14.1901 15.9934C13.6908 16.4646 13.2983 17.0373 13.0393 17.6731L13.035 17.6835L13.031 17.6941L12.95 17.9101L12.9459 17.9213L12.942 17.9325L12.1361 20.2933C12.1361 20.2934 12.136 20.2935 12.136 20.2935C11.78 21.3349 10.3388 21.3771 9.90903 20.4074L9.85892 20.2781L9.05821 17.9336C9.05819 17.9335 9.05818 17.9335 9.05817 17.9334C8.83638 17.2838 8.47783 16.6893 8.0067 16.19C7.53554 15.6907 6.96276 15.2982 6.32701 15.0392L6.31656 15.0349L6.306 15.0309L6.09 14.9499L6.07889 14.9458L6.06766 14.9419L3.70766 14.1359C2.66518 13.7799 2.62299 12.3388 3.59362 11.909L3.72302 11.8588L6.06766 11.0581L6.06778 11.058C6.71726 10.8361 7.3116 10.4775 7.81069 10.0063C8.30979 9.53516 8.70204 8.96245 8.96098 8.32682L8.96522 8.31642L8.96917 8.3059L9.05017 8.0899Z" stroke="#AFAFAF" stroke-width="1.6"/>
</svg>
