<svg width="48" height="48" viewBox="0 0 48 48" fill="none" xmlns="http://www.w3.org/2000/svg">
<rect width="48" height="48" rx="24" fill="#E7E7E7"/>
<path fill-rule="evenodd" clip-rule="evenodd" d="M26.208 16.83C26.6613 16.97 27.0947 17.15 27.508 17.37L29.341 16.27C29.5321 16.1554 29.7561 16.1079 29.9773 16.135C30.1985 16.1622 30.4043 16.2625 30.562 16.42L31.58 17.438C31.7375 17.5957 31.8378 17.8015 31.865 18.0227C31.8921 18.2439 31.8446 18.4679 31.73 18.659L30.63 20.492C30.85 20.9053 31.03 21.3387 31.17 21.792L33.243 22.311C33.4592 22.3652 33.6512 22.49 33.7883 22.6658C33.9255 22.8415 34 23.0581 34 23.281V24.719C34 24.9419 33.9255 25.1585 33.7883 25.3342C33.6512 25.51 33.4592 25.6348 33.243 25.689L31.17 26.208C31.03 26.6613 30.85 27.0947 30.63 27.508L31.73 29.341C31.8446 29.5321 31.8921 29.7561 31.865 29.9773C31.8378 30.1985 31.7375 30.4043 31.58 30.562L30.562 31.58C30.4043 31.7375 30.1985 31.8378 29.9773 31.865C29.7561 31.8921 29.5321 31.8446 29.341 31.73L27.508 30.63C27.0947 30.85 26.6613 31.03 26.208 31.17L25.689 33.243C25.6348 33.4592 25.51 33.6512 25.3342 33.7883C25.1585 33.9255 24.9419 34 24.719 34H23.281C23.0581 34 22.8415 33.9255 22.6658 33.7883C22.49 33.6512 22.3652 33.4592 22.311 33.243L21.792 31.17C21.3427 31.0312 20.9074 30.8504 20.492 30.63L18.659 31.73C18.4679 31.8446 18.2439 31.8921 18.0227 31.865C17.8015 31.8378 17.5957 31.7375 17.438 31.58L16.42 30.562C16.2625 30.4043 16.1622 30.1985 16.135 29.9773C16.1079 29.7561 16.1554 29.5321 16.27 29.341L17.37 27.508C17.1496 27.0926 16.9688 26.6573 16.83 26.208L14.757 25.689C14.5409 25.6349 14.3491 25.5101 14.212 25.3346C14.0748 25.1591 14.0002 24.9428 14 24.72V23.282C14 23.0591 14.0745 22.8425 14.2117 22.6668C14.3488 22.491 14.5408 22.3662 14.757 22.312L16.83 21.793C16.97 21.3397 17.15 20.9063 17.37 20.493L16.27 18.66C16.1554 18.4689 16.1079 18.2449 16.135 18.0237C16.1622 17.8025 16.2625 17.5967 16.42 17.439L17.438 16.42C17.5957 16.2625 17.8015 16.1622 18.0227 16.135C18.2439 16.1079 18.4679 16.1554 18.659 16.27L20.492 17.37C20.9053 17.15 21.3387 16.97 21.792 16.83L22.311 14.757C22.3651 14.5409 22.4899 14.3491 22.6654 14.212C22.8409 14.0748 23.0572 14.0002 23.28 14H24.718C24.9409 14 25.1575 14.0745 25.3332 14.2117C25.509 14.3488 25.6338 14.5408 25.688 14.757L26.208 16.83ZM24 28C25.0609 28 26.0783 27.5786 26.8284 26.8284C27.5786 26.0783 28 25.0609 28 24C28 22.9391 27.5786 21.9217 26.8284 21.1716C26.0783 20.4214 25.0609 20 24 20C22.9391 20 21.9217 20.4214 21.1716 21.1716C20.4214 21.9217 20 22.9391 20 24C20 25.0609 20.4214 26.0783 21.1716 26.8284C21.9217 27.5786 22.9391 28 24 28Z" fill="black"/>
</svg>
