<svg width="18" height="18" viewBox="0 0 18 18" fill="none" xmlns="http://www.w3.org/2000/svg">
<g clip-path="url(#clip0_1013_44819)">
<path d="M4.42514 5.30172C4.98014 5.84922 5.12264 6.63672 4.86014 7.31172L7.05014 9.50172V7.94922C7.05014 7.53672 7.38764 7.19922 7.80014 7.19922H8.57264C8.55014 7.07172 8.55014 6.95172 8.55014 6.82422C8.55014 4.54422 10.3951 2.69922 12.6751 2.69922C13.5247 2.69842 14.3539 2.96013 15.049 3.44854C15.7442 3.93695 16.2715 4.62822 16.5589 5.42777C16.8462 6.22732 16.8795 7.09611 16.6541 7.9153C16.4288 8.73449 15.9559 9.46406 15.3001 10.0042L15.3001 14.6992C15.3001 15.1117 14.9626 15.4492 14.5501 15.4492L7.80014 15.4492C7.38764 15.4492 7.05014 15.1117 7.05014 14.6992V11.6167L3.80264 8.36922C3.12764 8.63172 2.34014 8.49672 1.80014 7.94922L4.42514 5.30172ZM15.2626 7.19922C15.2776 7.07172 15.3001 6.95172 15.3001 6.82422C15.3001 5.37672 14.1226 4.19922 12.6751 4.19922C11.2276 4.19922 10.0501 5.37672 10.0501 6.82422C10.0501 6.95172 10.0726 7.07172 10.0876 7.19922L15.2626 7.19922Z" fill="white"/>
<ellipse cx="4.0501" cy="3.14922" rx="0.45" ry="0.45" fill="white"/>
<ellipse cx="2.2498" cy="3.14922" rx="0.45" ry="0.45" fill="white"/>
<ellipse cx="0.45" cy="2.25078" rx="0.45" ry="0.45" fill="white"/>
<ellipse cx="2.2498" cy="1.35039" rx="0.45" ry="0.45" fill="white"/>
<ellipse cx="2.2498" cy="4.95" rx="0.45" ry="0.45" fill="white"/>
<ellipse cx="0.45" cy="4.04961" rx="0.45" ry="0.45" fill="white"/>
<ellipse cx="0.45" cy="5.85039" rx="0.45" ry="0.45" fill="white"/>
</g>
<defs>
<clipPath id="clip0_1013_44819">
<rect width="18" height="18" fill="white" transform="matrix(-1 0 0 1 18 0)"/>
</clipPath>
</defs>
</svg>
