<svg width="18" height="18" viewBox="0 0 18 18" fill="none" xmlns="http://www.w3.org/2000/svg">
<path d="M5 16.0633C4.16875 16.0633 3.46088 15.7758 2.87638 15.2008C2.29188 14.6258 1.99975 13.9258 2 13.1008C2 12.707 2.07663 12.3305 2.22988 11.9713C2.38313 11.612 2.60025 11.2948 2.88125 11.0195L4.475 9.45391C4.55 9.38516 4.63288 9.33203 4.72363 9.29453C4.81438 9.25703 4.9065 9.23828 5 9.23828C5.0935 9.23828 5.18575 9.25703 5.27675 9.29453C5.36775 9.33203 5.4505 9.38516 5.525 9.45391L7.11875 11.0195C7.4 11.2945 7.61725 11.6118 7.7705 11.9713C7.92375 12.3308 8.00025 12.7073 8 13.1008C8 13.9258 7.70788 14.6258 7.12363 15.2008C6.53938 15.7758 5.8315 16.0633 5 16.0633Z" fill="white"/>
<path d="M13 16.0633C12.1688 16.0633 11.4609 15.7758 10.8764 15.2008C10.2919 14.6258 9.99975 13.9258 10 13.1008C10 12.707 10.0766 12.3305 10.2299 11.9713C10.3831 11.612 10.6003 11.2948 10.8813 11.0195L12.475 9.45391C12.55 9.38516 12.6329 9.33203 12.7236 9.29453C12.8144 9.25703 12.9065 9.23828 13 9.23828C13.0935 9.23828 13.1858 9.25703 13.2768 9.29453C13.3678 9.33203 13.4505 9.38516 13.525 9.45391L15.1188 11.0195C15.4 11.2945 15.6173 11.6118 15.7705 11.9713C15.9238 12.3308 16.0003 12.7073 16 13.1008C16 13.9258 15.7079 14.6258 15.1236 15.2008C14.5394 15.7758 13.8315 16.0633 13 16.0633Z" fill="white"/>
<g clip-path="url(#clip0_631_18159)">
<path d="M9 9.06328C8.16875 9.06328 7.46088 8.77578 6.87638 8.20078C6.29188 7.62578 5.99975 6.92578 6 6.10078C6 5.70703 6.07663 5.33053 6.22988 4.97128C6.38313 4.61203 6.60025 4.29478 6.88125 4.01953L8.475 2.45391C8.55 2.38516 8.63288 2.33203 8.72363 2.29453C8.81438 2.25703 8.9065 2.23828 9 2.23828C9.0935 2.23828 9.18575 2.25703 9.27675 2.29453C9.36775 2.33203 9.4505 2.38516 9.525 2.45391L11.1188 4.01953C11.4 4.29453 11.6173 4.61178 11.7705 4.97128C11.9238 5.33078 12.0003 5.70728 12 6.10078C12 6.92578 11.7079 7.62578 11.1236 8.20078C10.5394 8.77578 9.8315 9.06328 9 9.06328Z" fill="white"/>
</g>
<defs>
<clipPath id="clip0_631_18159">
<rect width="9" height="9" fill="white" transform="translate(4.5 1)"/>
</clipPath>
</defs>
</svg>
