<svg width="12" height="14" viewBox="0 0 12 14" fill="none" xmlns="http://www.w3.org/2000/svg">
<path d="M6 13.65C4.3375 13.65 2.92175 13.075 1.75275 11.925C0.58375 10.775 -0.000499679 9.375 3.2065e-07 7.725C3.2065e-07 6.9375 0.15325 6.1845 0.45975 5.466C0.76625 4.7475 1.2005 4.113 1.7625 3.5625L4.95 0.43125C5.1 0.29375 5.26575 0.1875 5.44725 0.1125C5.62875 0.0375001 5.813 0 6 0C6.187 0 6.3715 0.0375001 6.5535 0.1125C6.7355 0.1875 6.901 0.29375 7.05 0.43125L10.2375 3.5625C10.8 4.1125 11.2345 4.747 11.541 5.466C11.8475 6.185 12.0005 6.938 12 7.725C12 9.375 11.4158 10.775 10.2472 11.925C9.07875 13.075 7.663 13.65 6 13.65Z" fill="white"/>
</svg>
