<svg width="18" height="18" viewBox="0 0 18 18" fill="none" xmlns="http://www.w3.org/2000/svg">
<path fill-rule="evenodd" clip-rule="evenodd" d="M3.51217 3.3104C3.47667 3.02652 3.50197 2.73834 3.58637 2.46499C3.67078 2.19164 3.81236 1.93936 4.00173 1.72492C4.1911 1.51048 4.42391 1.33877 4.68472 1.22119C4.94553 1.10362 5.22837 1.04287 5.51446 1.04297H12.1693C13.383 1.04297 14.3213 2.10583 14.1716 3.3104L13.3007 10.2727C13.24 10.761 13.0027 11.2103 12.6337 11.536C12.2648 11.8616 11.7894 12.0411 11.2973 12.0407H9.56931V13.531H10.3842C10.5536 13.5311 10.7192 13.5815 10.86 13.6757C11.0008 13.7699 11.1105 13.9037 11.1754 14.0602C11.2402 14.2167 11.2571 14.389 11.2241 14.5551C11.1911 14.7213 11.1096 14.874 10.9899 14.9938L9.32131 16.6635C9.24146 16.7439 9.14647 16.8076 9.04183 16.8511C8.93719 16.8945 8.82498 16.9167 8.71169 16.9165C8.5984 16.9163 8.48628 16.8936 8.38181 16.8498C8.27733 16.806 8.18258 16.7419 8.10303 16.6613L6.43446 14.9938C6.31473 14.874 6.23322 14.7213 6.20021 14.5551C6.1672 14.389 6.18417 14.2167 6.24898 14.0602C6.3138 13.9037 6.42354 13.7699 6.56436 13.6757C6.70518 13.5815 6.87075 13.5311 7.04017 13.531H7.85503V12.0407H6.38531C5.36817 12.0407 4.50874 11.283 4.38303 10.2727L3.51217 3.3104ZM7.1156 6.96525C6.72474 7.04525 6.27103 7.09097 5.70988 7.06697L5.21388 3.09783C5.20853 3.0552 5.21232 3.01192 5.22497 2.97087C5.23763 2.92981 5.25888 2.89192 5.28731 2.85971C5.31574 2.8275 5.3507 2.8017 5.38986 2.78404C5.42902 2.76637 5.47149 2.75724 5.51446 2.75725H12.1693C12.3522 2.75725 12.4927 2.91725 12.4699 3.09783L12.1396 5.73783C11.5506 5.69887 10.959 5.73613 10.3796 5.84868C9.68588 5.98583 9.13274 6.22468 8.63103 6.4384L8.61617 6.44525C8.11674 6.66011 7.6676 6.84983 7.1156 6.96525Z" fill="white"/>
</svg>
