<svg width="48" height="48" viewBox="0 0 48 48" fill="none" xmlns="http://www.w3.org/2000/svg">
<g clip-path="url(#clip0_476_3713)">
<g filter="url(#filter0_d_476_3713)">
<path d="M8.348 19.9942C10.2381 20.8599 11.3134 22.7033 11.2713 24.6342L18.7565 28.1246L17.3405 24.2343C16.9643 23.2006 17.5022 22.0471 18.5358 21.6708L20.4716 20.9663C20.2989 20.6673 20.1895 20.3666 20.0732 20.0471C17.9937 14.3338 20.9343 8.02775 26.6476 5.94827C28.7759 5.17139 31.0922 5.071 33.2797 5.66083C35.4672 6.25067 37.419 7.50193 38.8682 9.24344C40.3174 10.9849 41.1932 13.1317 41.3757 15.3899C41.5583 17.6482 41.0387 19.9077 39.888 21.8593L44.1701 33.6243C44.5463 34.658 44.0084 35.8115 42.9748 36.1877L26.0603 42.3441C25.0266 42.7203 23.8731 42.1824 23.4969 41.1487L20.6855 33.4245L9.58583 28.2486C8.1338 29.522 6.03731 29.902 4.18481 29.0226L8.348 19.9942ZM37.2357 14.8646C37.157 14.5315 37.104 14.2102 36.9877 13.8907C35.6675 10.2635 31.6429 8.38684 28.0157 9.70704C24.3885 11.0272 22.5118 15.0518 23.832 18.679C23.9483 18.9985 24.1141 19.2787 24.268 19.5845L37.2357 14.8646Z" fill="black"/>
</g>
</g>
<defs>
<filter id="filter0_d_476_3713" x="0.185547" y="5.28125" width="48.1055" height="45.1826" filterUnits="userSpaceOnUse" color-interpolation-filters="sRGB">
<feFlood flood-opacity="0" result="BackgroundImageFix"/>
<feColorMatrix in="SourceAlpha" type="matrix" values="0 0 0 0 0 0 0 0 0 0 0 0 0 0 0 0 0 0 127 0" result="hardAlpha"/>
<feOffset dy="4"/>
<feGaussianBlur stdDeviation="2"/>
<feComposite in2="hardAlpha" operator="out"/>
<feColorMatrix type="matrix" values="0 0 0 0 0 0 0 0 0 0 0 0 0 0 0 0 0 0 0.25 0"/>
<feBlend mode="normal" in2="BackgroundImageFix" result="effect1_dropShadow_476_3713"/>
<feBlend mode="normal" in="SourceGraphic" in2="effect1_dropShadow_476_3713" result="shape"/>
</filter>
<clipPath id="clip0_476_3713">
<rect width="48" height="48" fill="white" transform="matrix(-1 0 0 1 48 0)"/>
</clipPath>
</defs>
</svg>
