<svg width="30" height="30" viewBox="0 0 30 30" fill="none" xmlns="http://www.w3.org/2000/svg">
<path d="M16.25 7.5C16.25 7.16848 16.1183 6.85054 15.8839 6.61612C15.6495 6.3817 15.3315 6.25 15 6.25C14.6685 6.25 14.3505 6.3817 14.1161 6.61612C13.8817 6.85054 13.75 7.16848 13.75 7.5V13.75H7.5C7.16848 13.75 6.85054 13.8817 6.61612 14.1161C6.3817 14.3505 6.25 14.6685 6.25 15C6.25 15.3315 6.3817 15.6495 6.61612 15.8839C6.85054 16.1183 7.16848 16.25 7.5 16.25H13.75V22.5C13.75 22.8315 13.8817 23.1495 14.1161 23.3839C14.3505 23.6183 14.6685 23.75 15 23.75C15.3315 23.75 15.6495 23.6183 15.8839 23.3839C16.1183 23.1495 16.25 22.8315 16.25 22.5V16.25H22.5C22.8315 16.25 23.1495 16.1183 23.3839 15.8839C23.6183 15.6495 23.75 15.3315 23.75 15C23.75 14.6685 23.6183 14.3505 23.3839 14.1161C23.1495 13.8817 22.8315 13.75 22.5 13.75H16.25V7.5Z" fill="black"/>
</svg>
