<svg width="24" height="24" viewBox="0 0 24 24" fill="none" xmlns="http://www.w3.org/2000/svg">
<path d="M2.66667 24C1.93333 24 1.30578 23.7391 0.784 23.2173C0.262222 22.6956 0.000888889 22.0676 0 21.3333V2.66667C0 1.93333 0.261333 1.30578 0.784 0.784C1.30667 0.262222 1.93422 0.000888889 2.66667 0H21.3333C22.0667 0 22.6947 0.261333 23.2173 0.784C23.74 1.30667 24.0009 1.93422 24 2.66667V21.3333C24 22.0667 23.7391 22.6947 23.2173 23.2173C22.6956 23.74 22.0676 24.0009 21.3333 24H2.66667ZM12 2.66667V10.8333C12 11.1 12.1111 11.2947 12.3333 11.4173C12.5556 11.54 12.7778 11.5342 13 11.4L14.6333 10.4C14.8556 10.2667 15.0889 10.2 15.3333 10.2C15.5778 10.2 15.8111 10.2667 16.0333 10.4L17.6667 11.4C17.8889 11.5333 18.1111 11.5391 18.3333 11.4173C18.5556 11.2956 18.6667 11.1009 18.6667 10.8333V2.66667H12Z" fill="black"/>
</svg>
