<svg width="24" height="24" viewBox="0 0 24 24" fill="none" xmlns="http://www.w3.org/2000/svg">
<g clip-path="url(#clip0_1805_6539)">
<path d="M2.424 24C1.733 24 1.1565 23.769 0.6945 23.307C0.2325 22.845 0.001 22.268 0 21.576V2.424C0 1.733 0.2315 1.1565 0.6945 0.6945C1.1575 0.2325 1.734 0.001 2.424 0H21.5775C22.2675 0 22.844 0.2315 23.307 0.6945C23.77 1.1575 24.001 1.734 24 2.424V21.5775C24 22.2675 23.769 22.844 23.307 23.307C22.845 23.77 22.268 24.001 21.576 24H2.424ZM1.5 2.424V21.5775C1.5 21.8075 1.596 22.019 1.788 22.212C1.98 22.405 2.1915 22.501 2.4225 22.5H21.5775C21.8075 22.5 22.019 22.404 22.212 22.212C22.405 22.02 22.501 21.8085 22.5 21.5775V2.4225C22.5 2.1925 22.404 1.981 22.212 1.788C22.02 1.595 21.808 1.499 21.576 1.5H18.75V9.621C18.75 9.863 18.649 10.043 18.447 10.161C18.245 10.279 18.0385 10.273 17.8275 10.143L16.3635 9.2475C16.1715 9.1175 15.967 9.0525 15.75 9.0525C15.533 9.0525 15.328 9.1175 15.135 9.2475L13.674 10.143C13.462 10.273 13.255 10.279 13.053 10.161C12.851 10.043 12.75 9.863 12.75 9.621V1.5H2.424C2.193 1.5 1.981 1.596 1.788 1.788C1.595 1.98 1.499 2.192 1.5 2.424Z" fill="black"/>
</g>
<defs>
<clipPath id="clip0_1805_6539">
<rect width="24" height="24" fill="white"/>
</clipPath>
</defs>
</svg>
