<svg width="18" height="18" viewBox="0 0 18 18" fill="none" xmlns="http://www.w3.org/2000/svg">
<path d="M9 16.1246C7.3375 16.1246 5.92175 15.5496 4.75275 14.3996C3.58375 13.2496 2.9995 11.8496 3 10.1996C3 9.41211 3.15325 8.65911 3.45975 7.94061C3.76625 7.22211 4.2005 6.58761 4.7625 6.03711L7.95 2.90586C8.1 2.76836 8.26575 2.66211 8.44725 2.58711C8.62875 2.51211 8.813 2.47461 9 2.47461C9.187 2.47461 9.3715 2.51211 9.5535 2.58711C9.7355 2.66211 9.901 2.76836 10.05 2.90586L13.2375 6.03711C13.8 6.58711 14.2345 7.22161 14.541 7.94061C14.8475 8.65961 15.0005 9.41261 15 10.1996C15 11.8496 14.4158 13.2496 13.2472 14.3996C12.0787 15.5496 10.663 16.1246 9 16.1246ZM9 14.6246C10.25 14.6246 11.3125 14.1964 12.1875 13.3399C13.0625 12.4834 13.5 11.4366 13.5 10.1996C13.5 9.61211 13.3875 9.05286 13.1625 8.52186C12.9375 7.99086 12.6125 7.52511 12.1875 7.12461L9 3.97461L5.8125 7.12461C5.3875 7.52461 5.0625 7.99036 4.8375 8.52186C4.6125 9.05336 4.5 9.61261 4.5 10.1996C4.5 11.4371 4.9375 12.4841 5.8125 13.3406C6.6875 14.1971 7.75 14.6251 9 14.6246Z" fill="white"/>
</svg>
